#!OML:ASF H:\Terrain\Patient Classification 1\Takeo\Monday\TakeoMonday.ASF
:FULLY-SPECIFIED
:DEGREES
969
root 7.0367 17.8018 0.678633 -367.977 51.9106 -366.422
lowerback 9.16686 -1.00223 0.212258
upperback 3.75011 -1.28992 -2.5571
thorax -1.31432 -0.595432 -2.63223
lowerneck -8.90845 -7.58571 -6.15364
upperneck -8.00156 -9.16263 9.3894
head -0.240628 -4.37889 3.84902
rclavicle 4.19436e-014 3.02153e-014
rhumerus -20.2579 37.1176 -106.261
rradius 69.3772
rwrist -10.1984
rhand -47.4902 45.7251
rfingers 7.12502
rthumb -20.1785 16.7531
lclavicle 4.19436e-014 3.02153e-014
lhumerus -20.9079 -33.9591 100.559
lradius 83.4286
lwrist 24.5574
lhand -38.6045 10.5748
lfingers 7.12502
lthumb -11.6223 40.2325
rfemur -7.53894 13.844 16.6477
rtibia 20.0868
rfoot -12.3424 -5.21416
rtoes -14.5604
lfemur -4.75834 -7.71511 -17.0395
ltibia 24.6081
lfoot -13.6588 5.79866
ltoes -3.12998
970
root 7.04313 17.818 0.643479 -368.222 51.014 -367.037
lowerback 8.87448 -0.963065 0.361028
upperback 3.7342 -1.22445 -2.3972
thorax -1.16661 -0.563776 -2.56036
lowerneck -9.21382 -7.5689 -6.05535
upperneck -7.67162 -9.15824 9.30138
head -0.0911862 -4.37139 3.78039
rclavicle 8.96519e-014 1.59028e-014
rhumerus -20.2265 37.6065 -106.391
rradius 69.1983
rwrist -10.1213
rhand -48.0694 45.7151
rfingers 7.12502
rthumb -20.7351 16.8028
lclavicle 8.96519e-014 1.59028e-014
lhumerus -20.7862 -33.7349 100.426
lradius 83.3084
lwrist 24.3568
lhand -38.5241 10.4513
lfingers 7.12502
lthumb -11.5447 40.1133
rfemur -7.80465 13.1228 17.2468
rtibia 20.3058
rfoot -12.6979 -6.39175
rtoes -12.0043
lfemur -4.83276 -7.40308 -16.5825
ltibia 24.4444
lfoot -13.7305 6.29726
ltoes -2.67279
971
root 7.07229 17.8374 0.619936 -367.32 49.4296 -367.113
lowerback 7.45498 -0.615937 0.349233
upperback 3.56485 -0.765198 -2.25506
thorax -0.534959 -0.337716 -2.45993
lowerneck -9.46214 -7.61772 -6.11987
upperneck -7.36238 -9.23291 9.05794
head 0.0469196 -4.40137 3.68732
rclavicle 6.12257e-014 4.77083e-015
rhumerus -20.1351 38.057 -106.206
rradius 69.1147
rwrist -10.5088
rhand -47.997 46.7008
rfingers 7.12502
rthumb -20.6655 17.781
lclavicle 6.12257e-014 4.77083e-015
lhumerus -20.7036 -33.4741 100.619
lradius 83.2193
lwrist 24.0444
lhand -38.5178 10.6339
lfingers 7.12502
lthumb -11.5386 40.2962
rfemur -9.02527 12.6493 17.3872
rtibia 20.6462
rfoot -12.7581 -6.96254
rtoes -7.44152
lfemur -5.36932 -6.74189 -16.3579
ltibia 24.1436
lfoot -13.784 7.18505
ltoes -2.404
972
root 7.06276 17.8411 0.58137 -367.284 49.1375 -366.771
lowerback 7.79584 -0.662264 -0.204993
upperback 3.66036 -0.862177 -2.17895
thorax -0.620126 -0.391133 -2.05913
lowerneck -9.68545 -7.69829 -6.44601
upperneck -7.21807 -9.30792 9.18069
head 0.162834 -4.42548 3.77407
rclavicle -3.27995e-014 9.54166e-015
rhumerus -19.811 38.3831 -105.921
rradius 68.9834
rwrist -10.7511
rhand -47.878 46.9692
rfingers 7.12502
rthumb -20.5512 18.037
lclavicle -3.27995e-014 9.54166e-015
lhumerus -20.4428 -33.4532 100.624
lradius 83.2237
lwrist 23.97
lhand -38.4761 10.0834
lfingers 7.12502
lthumb -11.4985 39.748
rfemur -8.79187 11.9872 17.3473
rtibia 21.1579
rfoot -12.7807 -8.38904
rtoes -7.8779
lfemur -4.95316 -7.00857 -16.7095
ltibia 23.7711
lfoot -13.5258 7.66974
ltoes -2.34049
973
root 7.08607 17.8603 0.562484 -366.598 48.1291 -366.464
lowerback 6.98184 -0.476038 -0.548677
upperback 3.58604 -0.630323 -2.1914
thorax -0.235363 -0.280373 -1.90204
lowerneck -9.75954 -7.72745 -6.81002
upperneck -7.07744 -9.31345 9.66471
head 0.271756 -4.41661 4.00423
rclavicle -3.83654e-014 -3.18055e-015
rhumerus -19.6785 38.5223 -105.945
rradius 68.8385
rwrist -10.7548
rhand -47.9645 46.3579
rfingers 7.12502
rthumb -20.6343 17.4347
lclavicle -3.83654e-014 -3.18055e-015
lhumerus -20.4924 -33.4673 100.617
lradius 83.3439
lwrist 24.0311
lhand -38.6308 9.72216
lfingers 7.12502
lthumb -11.6476 39.3784
rfemur -9.25028 11.8612 17.2766
rtibia 21.692
rfoot -12.8836 -9.45097
rtoes -10.2791
lfemur -5.02969 -6.56254 -16.8835
ltibia 23.3837
lfoot -13.4887 8.14608
ltoes -3.01052
974
root 7.07982 17.8638 0.518498 -367.149 48.1389 -366.455
lowerback 8.05154 -0.592319 -0.550043
upperback 3.4616 -0.80633 -2.27964
thorax -0.961028 -0.368473 -1.97049
lowerneck -9.38194 -7.80023 -7.00355
upperneck -7.04328 -9.41758 10.0568
head 0.262189 -4.47416 4.18516
rclavicle 4.77083e-015 4.77083e-015
rhumerus -20.1486 38.6145 -106.342
rradius 68.7071
rwrist -10.097
rhand -49.3866 46.5368
rfingers 7.12502
rthumb -22.0003 17.768
lclavicle 4.77083e-015 4.77083e-015
lhumerus -20.9678 -33.6683 100.843
lradius 83.4862
lwrist 24.169
lhand -39.0526 9.93716
lfingers 7.12502
lthumb -12.0543 39.57
rfemur -8.56852 10.971 17.4568
rtibia 22.2127
rfoot -13.2254 -10.5348
rtoes -10.1664
lfemur -4.38928 -7.00764 -17.1265
ltibia 23.0973
lfoot -13.2933 8.46661
ltoes -2.91505
